2.8Hzhigh3min_grf.mot
version=1
nRows=25
nColumns 19
inDegrees=yes
endheader
time	1_ground_force_vx	1_ground_force_vy	1_ground_force_vz	1_ground_force_px	1_ground_force_py	1_ground_force_pz	1_ground_torque_x	1_ground_torque_y	1_ground_torque_z	2_ground_force_vx	2_ground_force_vy	2_ground_force_vz	2_ground_force_px	2_ground_force_py	2_ground_force_pz	2_ground_torque_x	2_ground_torque_y	2_ground_torque_z
            3.751500	           -0.363821	           -5.411383	            0.757272	           -0.233013	            0.005581	           -0.255695	           -0.612402	           -0.701388	           -0.336500	            0.099373	           -1.654486	           -0.709875	           -0.232311	            0.006130	           -0.833667	           -0.413268	           -0.010743	           -0.056409
            3.752000	           -0.364307	           -6.491798	            0.477499	           -0.233013	            0.005581	           -0.255695	           -0.674785	           -0.692651	           -0.223481	            0.102196	           -2.392418	           -0.337078	           -0.232311	            0.006130	           -0.833667	           -0.412721	           -0.171170	           -0.132383
            3.752500	           -0.273208	           -5.769931	            0.296939	           -0.233013	            0.005581	           -0.255695	           -0.536221	           -0.063876	           -0.254841	            0.336692	           -2.393581	            0.225959	           -0.232311	            0.006130	           -0.833667	           -0.431192	           -0.256380	           -0.113828
            3.753000	           -0.134816	           -6.131812	            0.616043	           -0.233013	            0.005581	           -0.255695	           -0.549935	            0.666667	           -0.302192	            0.240896	           -1.840637	           -0.006670	           -0.232311	            0.006130	           -0.833667	           -0.450336	           -0.152602	           -0.075749
            3.753500	            0.001982	           -6.490940	            0.293165	           -0.233013	            0.005581	           -0.255695	           -0.611027	            0.832927	           -0.257855	            0.059957	           -3.681291	           -0.435514	           -0.232311	            0.006130	           -0.833667	           -0.394679	            0.045974	           -0.037364
            3.754000	           -0.088976	           -4.870337	            0.713052	           -0.233013	            0.005581	           -0.255695	           -0.629560	            0.444593	           -0.244643	           -0.224650	           -2.760058	           -0.854462	           -0.232311	            0.006130	           -0.833667	           -0.395156	            0.169128	           -0.112326
            3.754500	           -0.409371	           -5.772317	            0.847552	           -0.233013	            0.005581	           -0.255695	           -0.559845	           -0.285443	           -0.336789	           -0.084162	           -2.759048	           -0.995306	           -0.232311	            0.006130	           -0.833667	           -0.432642	            0.149952	           -0.074677
            3.755000	           -0.546996	           -6.493013	            0.753089	           -0.233013	            0.005581	           -0.255695	           -0.442634	           -0.720169	           -0.288388	           -0.269424	           -3.313342	           -0.668701	           -0.232311	            0.006130	           -0.833667	           -0.338092	           -0.029108	           -0.131909
            3.755500	           -0.363806	           -4.870783	            0.805447	           -0.233013	            0.005581	           -0.255695	           -0.520633	           -0.581608	           -0.242243	            0.054037	           -2.024458	           -0.288816	           -0.232311	            0.006130	           -0.833667	           -0.393817	           -0.199595	           -0.094792
            3.756000	           -0.226685	           -4.509635	            0.669084	           -0.233013	            0.005581	           -0.255695	           -0.608878	            0.111528	           -0.195605	            0.432160	           -2.943847	           -0.292261	           -0.232311	            0.006130	           -0.833667	           -0.374870	           -0.246723	           -0.113818
            3.756500	           -0.227886	           -5.408604	            0.114948	           -0.233013	            0.005581	           -0.255695	           -0.584997	            0.740145	           -0.211735	            0.570030	           -2.206578	           -0.336621	           -0.232311	            0.006130	           -0.833667	           -0.412637	           -0.190210	           -0.094750
            3.757000	            0.001688	           -6.130016	            0.202999	           -0.233013	            0.005581	           -0.255695	           -0.626162	            0.805271	           -0.276746	            0.100140	           -1.839471	           -0.475891	           -0.232311	            0.006130	           -0.833667	           -0.413294	           -0.001358	           -0.037525
            3.757500	           -0.318449	           -5.951188	            0.525560	           -0.233013	            0.005581	           -0.255695	           -0.545952	            0.296602	           -0.255220	           -0.466211	           -0.735272	           -0.847135	           -0.232311	            0.006130	           -0.833667	           -0.489049	            0.159336	           -0.112320
            3.758000	           -0.318449	           -5.951188	            0.525560	           -0.233013	            0.005581	           -0.255695	           -0.564813	           -0.497931	           -0.352570	           -0.039245	           -2.206936	           -0.852571	           -0.232311	            0.006130	           -0.833667	           -0.413908	            0.168791	           -0.036918
            3.758500	           -0.547097	           -4.690749	            0.852531	           -0.233013	            0.005581	           -0.255695	           -0.541563	           -0.720184	           -0.288207	            0.006461	           -1.839977	           -0.428924	           -0.232311	            0.006130	           -0.833667	           -0.450923	           -0.001023	           -0.169460
            3.759000	           -0.318107	           -5.951778	            0.663127	           -0.233013	            0.005581	           -0.255695	           -0.570597	           -0.433385	           -0.314683	            0.331958	           -1.103873	            0.042846	           -0.232311	            0.006130	           -0.833667	           -0.393843	           -0.190209	           -0.075908
            3.759500	           -0.180824	           -5.230492	            0.620022	           -0.233013	            0.005581	           -0.255695	           -0.644309	            0.278405	           -0.305609	            0.285087	           -1.103875	           -0.004062	           -0.232311	            0.006130	           -0.833667	           -0.318438	           -0.256309	           -0.019625
            3.760000	           -0.089914	           -7.211431	            0.152733	           -0.233013	            0.005581	           -0.255695	           -0.698706	            0.823861	           -0.317954	            0.098996	           -1.472681	           -0.052224	           -0.232311	            0.006130	           -0.833667	           -0.375160	           -0.161784	           -0.075814
            3.760500	           -0.135859	           -5.409176	            0.252288	           -0.233013	            0.005581	           -0.255695	           -0.516126	            0.676146	           -0.358656	            0.006441	           -1.839810	           -0.475852	           -0.232311	            0.006130	           -0.833667	           -0.394576	            0.008432	           -0.112900
            3.761000	            0.002401	           -5.049995	            0.574484	           -0.233013	            0.005581	           -0.255695	           -0.586137	            0.038251	           -0.317769	           -0.369188	           -1.655676	           -0.850460	           -0.232311	            0.006130	           -0.833667	           -0.376252	            0.140703	           -0.074735
            3.761500	           -0.409434	           -6.673252	            0.751975	           -0.233013	            0.005581	           -0.255695	           -0.611763	           -0.553273	           -0.394171	           -0.322214	           -1.656511	           -0.568911	           -0.232311	            0.006130	           -0.833667	           -0.451418	            0.140633	           -0.131254
            3.762000	           -0.363758	           -4.510448	            0.852848	           -0.233013	            0.005581	           -0.255695	           -0.616983	           -0.710468	           -0.374156	           -0.133424	           -2.024633	           -0.429521	           -0.232311	            0.006130	           -0.833667	           -0.469529	           -0.048421	           -0.150771
            3.762500	           -0.317571	           -5.772496	            0.893180	           -0.233013	            0.005581	           -0.255695	           -0.617975	           -0.239435	           -0.276144	           -0.271836	           -2.578757	           -0.102935	           -0.232311	            0.006130	           -0.833667	           -0.450293	           -0.162122	           -0.056932
            3.763000	           -0.226745	           -6.672037	            0.476384	           -0.233013	            0.005581	           -0.255695	           -0.656370	            0.444838	           -0.325567	            0.477680	           -2.575381	           -0.290967	           -0.232311	            0.006130	           -0.833667	           -0.393637	           -0.256109	           -0.151545
            3.763500	           -0.135826	           -5.589442	            0.251515	           -0.233013	            0.005581	           -0.255695	           -0.628345	            0.832698	           -0.226113	            0.665724	           -2.758685	           -0.338632	           -0.232311	            0.006130	           -0.833667	           -0.318846	           -0.152060	           -0.094655
